<?xml version="1.0" encoding="utf-8"?>
<!-- Generator: Adobe Illustrator 16.0.0, SVG Export Plug-In . SVG Version: 6.00 Build 0)  -->
<!DOCTYPE svg PUBLIC "-//W3C//DTD SVG 1.1//EN" "http://www.w3.org/Graphics/SVG/1.1/DTD/svg11.dtd">
<svg version="1.1" id="Layer_1" xmlns="http://www.w3.org/2000/svg" xmlns:xlink="http://www.w3.org/1999/xlink" x="0px" y="0px"
	 width="410px" height="288px" viewBox="0 0 410 288" enable-background="new 0 0 410 288" xml:space="preserve">
<path stroke="#FFFFFF" stroke-miterlimit="10" d="M12.125,9.631c0,0,270.328,200.459,387.347,0c0,0,3.397-1.696,2.353,1.867
	c0,0-96.114,204.402-393.824-2.271C8,9.228,7.803,6.545,12.125,9.631z"/>
<path d="M326.178,82.591c22.901-9.927,68.866,107.727-29.067,114.564c-33.683,2.352-111.671,3.837-76.604-99.938
	C220.506,97.218,283.557,101.065,326.178,82.591z"/>
<path fill="none" stroke="#000000" stroke-width="8" stroke-miterlimit="10" d="M47.599,131.754c0,0,39.329-38.854,103.495,0"/>
<path fill="none" stroke="#000000" stroke-width="8" stroke-miterlimit="10" d="M185.091,266.643c0,0,13.515,12.716,17.999,11.774
	c6.33-1.329,17.999-11.774,17.999-11.774"/>
</svg>
