<?xml version="1.0" encoding="utf-8"?>
<!-- Generator: Adobe Illustrator 16.0.0, SVG Export Plug-In . SVG Version: 6.00 Build 0)  -->
<!DOCTYPE svg PUBLIC "-//W3C//DTD SVG 1.1//EN" "http://www.w3.org/Graphics/SVG/1.1/DTD/svg11.dtd">
<svg version="1.1" id="Layer_1" xmlns="http://www.w3.org/2000/svg" xmlns:xlink="http://www.w3.org/1999/xlink" x="0px" y="0px"
	 width="207.886px" height="163.167px" viewBox="0 0 207.886 163.167" enable-background="new 0 0 207.886 163.167"
	 xml:space="preserve">
<g>
	<path stroke="#000000" stroke-miterlimit="10" d="M204.341,96.354c-3.546-2.837-35.461,24.114-35.461,24.114
		C113.562,150.964,4.634,99.56,3.632,99.191c-1.423-0.523,16.131,7.15,17.021,13.477c5.342,38,28.367,38.297,28.367,38.297
		l58.865,7.803c53.697,4.535,59.34,2.496,57.447-12.057c-3.312-25.475,42.553-47.52,42.553-47.52L204.341,96.354z"/>
	<polygon fill="#434343" stroke="#434343" stroke-miterlimit="10" points="98.98,128.173 98.98,5.575 93.623,127.354 	"/>
	<polyline fill="#434343" stroke="#434343" stroke-miterlimit="10" points="67.509,53.756 64.488,122.417 67.509,122.878 	"/>
	<polyline fill="#434343" stroke="#434343" stroke-miterlimit="10" points="128.208,61.585 125.187,130.246 128.208,130.707 	"/>
	<path fill="#2D2D2D" d="M124.659,66.874c24.399,37.279-7.142,51.461-7.142,51.461c20.711-6.601,17.483,1.115,17.483,1.115
		c33.933-1.445,14.399-40.874,14.399-40.874C143.039,68.966,124.658,66.874,124.659,66.874z"/>
	<path d="M81.904,25.449c44.479,67.958-13.02,93.81-13.02,93.81c37.756-12.031,33.229,2.035,33.229,2.035
		c61.861-2.635,24.896-74.51,24.896-74.51C115.414,29.264,81.906,25.449,81.904,25.449z"/>
	<path fill="#2D2D2D" d="M60.572,57.676c25.541,39.025-7.477,53.869-7.477,53.869c21.68-6.905,18.189,1.17,18.189,1.17
		c35.523-1.512,15.186-42.787,15.186-42.787C79.812,59.866,60.572,57.676,60.572,57.676z"/>
	<path fill="#2D2D2D" d="M98.98,8.286v7.341c-10.904-4.532-16.879-1.711-21.465,0.704c-11.718,6.171-20.965-0.156-20.965-0.156
		c-3.639-1.924-10.136,0.308-12.939-0.812c-1.885-0.753,12.693-3.103,12.693-3.103c3.623-2.331-11.914-1.596-10.14-2.159
		C54.802,7.365,60.238,9.76,60.238,9.76c7.91,5.604,16.5-0.043,16.5-0.043C88.902,2.418,98.98,8.286,98.98,8.286L98.98,8.286z"/>
	<path d="M67.228,55.304v5.452c-8.097-3.366-12.533-1.271-15.937,0.522c-8.698,4.581-15.563-0.115-15.563-0.115
		c-2.703-1.43-7.527,0.227-9.608-0.604c-1.399-0.56,9.425-2.303,9.425-2.303c2.689-1.732-8.845-1.185-7.527-1.603
		c6.414-2.033,10.449-0.254,10.449-0.254c5.873,4.159,12.249-0.033,12.249-0.033c9.032-5.418,16.515-1.062,16.515-1.062H67.228z"/>
	<g opacity="0.4">
		<g>
			<path fill="none" stroke="#000000" stroke-miterlimit="10" d="M53.583,137.417"/>
		</g>
	</g>
	<g opacity="0.4">
		<g>
			<path fill="none" stroke="#000000" stroke-miterlimit="10" d="M161.583,142.917"/>
		</g>
	</g>
</g>
</svg>
