<?xml version="1.0" encoding="utf-8"?>
<!-- Generator: Adobe Illustrator 16.0.0, SVG Export Plug-In . SVG Version: 6.00 Build 0)  -->
<!DOCTYPE svg PUBLIC "-//W3C//DTD SVG 1.1//EN" "http://www.w3.org/Graphics/SVG/1.1/DTD/svg11.dtd">
<svg version="1.1" xmlns="http://www.w3.org/2000/svg" xmlns:xlink="http://www.w3.org/1999/xlink" x="0px" y="0px" width="400px"
	 height="200px" viewBox="0 0 400 200" enable-background="new 0 0 400 200" xml:space="preserve">
<g id="Layer_6">
	<rect y="-0.023" fill="#090406" width="400" height="200.023"/>
</g>
<g id="Layer_3">
	<path fill="#EAE4E6" d="M62.539,176.662c0,0-10.577,34.946-29.731,13.879c-4.979-5.474-4.689-14.294,1.026-15.875
		c-7.183-1.978-11.281-14.822-4.191-20.992c19.706-17.149,32.691,8.19,32.691,8.19L320.57,26.5c0,0,0.43-32.832,26.155-20.629
		c6.686,3.171,10.229,14.703,5.543,18.337c7.396-0.901,15.61,6.157,11.398,14.559c-11.707,23.352-33.732,3.538-33.732,3.538
		L62.333,176.666"/>
	<path fill="#EAE4E6" d="M371.227,166.613C365.291,134.096,332,157.25,332,157.25L62.333,23.533c0,0,4.083-26.415-21.853-23.302
		c-9.331,1.12-10.688,11.865-5.858,17.538c-5.616-1.905-13.282,7.411-12.24,14.737c4.008,28.189,34.868,3.619,34.868,3.619
		l270.396,140.431l0,0c0,0-2.45,22.44,23.651,21.403c9.391-0.373,11.6-10.976,7.236-17.015
		C358.533,180.943,373.62,179.727,371.227,166.613z"/>
	<path fill="none" stroke="#090406" stroke-miterlimit="10" d="M35.667,14.333c-5.609-4.797-0.528-8.319,5.353-10.129
		c8.43-2.594,9.765,2.405,15.314,8.129"/>
	<path fill="none" stroke="#090406" stroke-miterlimit="10" d="M48.333,9.667c5.365-0.253,6.104,5.456,8.667,8.667"/>
	<path fill="none" stroke="#090406" stroke-miterlimit="10" d="M32.333,183c4.448,2.142,6.03-6.308,6.6-9.901
		c-2.699-0.097-4.229-1.559-4.6-4.099"/>
	<path fill="none" stroke="#090406" stroke-miterlimit="10" d="M364.333,159c3.729,2.759,2.747,8.294,2.601,12.529
		c-3.803,1.709-7.216,2.534-11.267,2.804"/>
	<path fill="none" stroke="#090406" stroke-miterlimit="10" d="M309,145c-3.411-1.12-6.457-4.294-9.289-5.198
		c-4.754-1.517-10.182,1.404-14.711-1.469"/>
	<path fill="none" stroke="#090406" stroke-miterlimit="10" d="M292.333,46.333C299.616,43.77,304.847,35.57,313,35"/>
</g>
<g id="Layer_4">
	<path fill="#EAE4E6" d="M209.221,7.957"/>
	<path fill="#EAE4E6" stroke="#666766" stroke-miterlimit="10" d="M198.163,7.088c-23.663-0.152-46.969,11.025-53.606,39.203
		c-5.771,24.5-5.516,46.5,13,72.5c0,0-1,46.5,31,47c0,0,10.318,0.565,12.014,0.542l12.014-0.542c32-0.5,31-47,31-47
		c18.516-26,18.771-48,13-72.5c-5.797-24.604-24.436-37.673-44.705-39.198"/>
	<path fill="#090406" stroke="#0B0B0B" stroke-miterlimit="10" d="M141.833,64.06c0,0,14.338,1.218,14.442,3.438
		c0.104,2.221,0.104,2.221,0.104,2.221s-12.107-4.05-14.547-2.859V64.06z"/>
	<path fill="#090406" stroke="#0B0B0B" stroke-miterlimit="10" d="M259.001,64.395c0,0-15.814,1.352-15.932,3.7
		c-0.115,2.349-0.115,2.349-0.115,2.349s13.438-4.284,16.146-3.024L259.001,64.395z"/>
	<path fill="#FFFFFF" stroke="#090406" stroke-miterlimit="10" d="M188,63.843"/>
	<line fill="#FFFFFF" stroke="#090406" stroke-miterlimit="10" x1="185.487" y1="64.843" x2="212.842" y2="64.843"/>
	<line fill="none" stroke="#090406" stroke-miterlimit="10" x1="188.762" y1="66.52" x2="188" y2="65.708"/>
	<line fill="none" stroke="#090406" stroke-miterlimit="10" x1="188.762" y1="66.52" x2="209.572" y2="66.52"/>
	<linearGradient id="SVGID_1_" gradientUnits="userSpaceOnUse" x1="160.0156" y1="63.0156" x2="185.3195" y2="88.3195">
		<stop  offset="0.3713" style="stop-color:#000000"/>
		<stop  offset="0.4761" style="stop-color:#030303"/>
		<stop  offset="0.5454" style="stop-color:#0B0B0C"/>
		<stop  offset="0.6043" style="stop-color:#1A1A1B"/>
		<stop  offset="0.6575" style="stop-color:#2E2E30"/>
		<stop  offset="0.7064" style="stop-color:#48494B"/>
		<stop  offset="0.7523" style="stop-color:#68696C"/>
		<stop  offset="0.7533" style="stop-color:#696A6D"/>
		<stop  offset="0.7781" style="stop-color:#616264"/>
		<stop  offset="0.8198" style="stop-color:#4A4A4C"/>
		<stop  offset="0.83" style="stop-color:#434345"/>
		<stop  offset="1" style="stop-color:#000000"/>
	</linearGradient>
	<path fill="url(#SVGID_1_)" stroke="#090406" stroke-miterlimit="10" d="M191.667,77c0,6.627-5.373,12-12,12h-14
		c-6.627,0-12-5.373-12-12v-2.667c0-0.559,0.038-1.108,0.111-1.647c0.803-5.848,5.819-10.353,11.889-10.353h14
		c6.627,0,12,5.373,12,12V77z"/>
	<linearGradient id="SVGID_2_" gradientUnits="userSpaceOnUse" x1="213.0156" y1="63.0156" x2="238.3195" y2="88.3195">
		<stop  offset="0.3713" style="stop-color:#000000"/>
		<stop  offset="0.4761" style="stop-color:#030303"/>
		<stop  offset="0.5454" style="stop-color:#0B0B0C"/>
		<stop  offset="0.6043" style="stop-color:#1A1A1B"/>
		<stop  offset="0.6575" style="stop-color:#2E2E30"/>
		<stop  offset="0.7064" style="stop-color:#48494B"/>
		<stop  offset="0.7523" style="stop-color:#68696C"/>
		<stop  offset="0.7533" style="stop-color:#696A6D"/>
		<stop  offset="0.7781" style="stop-color:#616264"/>
		<stop  offset="0.8198" style="stop-color:#4A4A4C"/>
		<stop  offset="0.83" style="stop-color:#434345"/>
		<stop  offset="1" style="stop-color:#000000"/>
	</linearGradient>
	<path fill="url(#SVGID_2_)" stroke="#090406" stroke-miterlimit="10" d="M244.667,77c0,6.627-5.372,12-12,12h-14
		c-6.628,0-12-5.373-12-12v-2.667c0-6.627,5.372-12,12-12h14c6.628,0,12,5.373,12,12V77z"/>
	<path fill="#090406" d="M198.377,107.184C202.042,107.25,205.833,118,202.5,118c-3.087,0-4.356-1.25-4.356-1.25
		s-0.874,1.612-4.708,1.07C191.197,117.504,193.719,107.099,198.377,107.184z"/>
</g>
<g id="Layer_5">
	<path fill="none" stroke="#090406" stroke-miterlimit="10" d="M51,34.5c1.975-5.604,9.193-4.879,13.4-2.375
		C69.347,35.071,71.509,38.974,78,40"/>
	<linearGradient id="SVGID_3_" gradientUnits="userSpaceOnUse" x1="156.3667" y1="133.5938" x2="244.8574" y2="133.5938">
		<stop  offset="0" style="stop-color:#000000"/>
		<stop  offset="0.5079" style="stop-color:#565759"/>
		<stop  offset="1" style="stop-color:#000000"/>
	</linearGradient>
	<path fill="none" stroke="url(#SVGID_3_)" stroke-width="7" stroke-miterlimit="10" d="M157.556,118.792c0,0,11.069-4,12.819-2.667
		c2.923,2.227,4.292,23.375,4.292,35.209H223c0,0,2.667-32.834,4.875-34.209c3.422-2.131,15.709,2.667,15.709,2.667"/>
	<g>
		
			<line fill="#FFFFFF" stroke="#090406" stroke-width="4" stroke-miterlimit="10" x1="180.5" y1="143.197" x2="180.5" y2="161.471"/>
		
			<line fill="#FFFFFF" stroke="#090406" stroke-width="4" stroke-miterlimit="10" x1="189.292" y1="143.197" x2="189.292" y2="161.471"/>
		
			<line fill="#FFFFFF" stroke="#090406" stroke-width="4" stroke-miterlimit="10" x1="198.083" y1="143.197" x2="198.083" y2="161.471"/>
		
			<line fill="#FFFFFF" stroke="#090406" stroke-width="4" stroke-miterlimit="10" x1="206.875" y1="143.378" x2="206.875" y2="161.651"/>
		
			<line fill="#FFFFFF" stroke="#090406" stroke-width="4" stroke-miterlimit="10" x1="215.667" y1="143.378" x2="215.667" y2="161.651"/>
	</g>
	<path fill="none" stroke="#090406" stroke-miterlimit="10" d="M81,165.5c2.848-1.722,3.216-4.626,5.487-6.513
		c1.609-1.336,4.324-2.3,6.385-3.026c5.097-1.796,6.944-4.039,11.627-6.961"/>
	<path fill="none" stroke="#090406" stroke-miterlimit="10" d="M340.384,187.997c-5.43-4.132-4.62-11.118-7.924-16.26
		c-3.509-5.463-10.885-5.331-16.076-8.24"/>
	<path fill="none" stroke="#090406" stroke-miterlimit="10" d="M353.18,155.497c2.73,0.846,5.686,1.18,6.915,3.585
		c0.347,1.555,0.826,2.859,1.085,4.415"/>
	<path fill="none" stroke="#090406" stroke-miterlimit="10" d="M324.333,17.667c1.719,8.572,0.131,8-5.516,13.852
		c-4.575,4.741-5.952,11.363-14.484,10.148"/>
	<path fill="none" stroke="#090406" stroke-miterlimit="10" d="M122.333,147c-0.497-4.702,7.592-7.229,11.333-8"/>
</g>
</svg>
