<?xml version="1.0" encoding="utf-8"?>
<!-- Generator: Adobe Illustrator 16.0.0, SVG Export Plug-In . SVG Version: 6.00 Build 0)  -->
<!DOCTYPE svg PUBLIC "-//W3C//DTD SVG 1.1//EN" "http://www.w3.org/Graphics/SVG/1.1/DTD/svg11.dtd">
<svg version="1.1" id="Layer_1" xmlns="http://www.w3.org/2000/svg" xmlns:xlink="http://www.w3.org/1999/xlink" x="0px" y="0px"
	 width="261.333px" height="265.333px" viewBox="0 0 261.333 265.333" enable-background="new 0 0 261.333 265.333"
	 xml:space="preserve">
<g>
	<g>
		<path d="M197.766,94.067c-3.658,0.377-6.931,0.231-9.86-0.352c-30.386-6.044-23.697-58.974-23.697-58.974
			s24.95,3.061,33.267,2.445"/>
		<path d="M197.039,94.067c41.849,4.506,33.558-59.326,33.558-59.326s-24.932,2.696-33.267,2.445"/>
	</g>
	<path d="M196.795,91.174v23.019c19.612,0,13.281-23.019,13.281-23.019H196.795z"/>
	<path d="M197.565,114.193c-20.965-0.815-13.28-23.019-13.28-23.019h13.28"/>
	<polygon points="206.899,110.398 203.199,233.178 191.627,233.178 187.238,110.398 	"/>
	<path d="M136.076,51.408c8.503,53.65-5.356,114.062-5.356,114.062c-0.783,7.812-10.68,3.646-10.68,3.646
		c9.305,45.486,12.424,61.404-5.729,64.062c-28.588,4.188-47.617,3.22-59.176,1.244c-19.471-3.328-15.64-21.582-3.064-22.598
		c35.492-2.865,38.021-15.104,38.021-15.104c3.199-22.393-0.781-28.646-0.781-28.646s-15.119,2.586-14.6-9.918
		c1.266-30.36-32.293-69.77-1.025-120.291C73.686,37.866,134.031,38.508,136.076,51.408z"/>
	<path fill="#FFFFFF" d="M80.21,57.266c-12.728,30.024,5.746,91.486,5.746,91.486c-22.34-64.874-9.905-91.227-9.905-91.227
		L80.21,57.266z"/>
	<path fill="#FFFFFF" d="M103.954,54.695c-16.762,27.973-6.975,91.402-6.975,91.402c-13.146-67.341,2.818-91.718,2.818-91.718
		L103.954,54.695z"/>
	<path fill="#FFFFFF" d="M125.067,69.431c-14.854,22.176-15.666,76.083-15.666,76.083c-1.029-57.44,12.849-76.663,12.849-76.663
		L125.067,69.431z"/>
	<path d="M197.067,238.907c-7.77-0.391-7.486-5.729-7.486-5.729h15.648C204.375,238.907,197.069,238.907,197.067,238.907z"/>
</g>
</svg>
