<?xml version="1.0" encoding="utf-8"?>
<!-- Generator: Adobe Illustrator 16.0.0, SVG Export Plug-In . SVG Version: 6.00 Build 0)  -->
<!DOCTYPE svg PUBLIC "-//W3C//DTD SVG 1.1//EN" "http://www.w3.org/Graphics/SVG/1.1/DTD/svg11.dtd">
<svg version="1.1" id="Layer_2" xmlns="http://www.w3.org/2000/svg" xmlns:xlink="http://www.w3.org/1999/xlink" x="0px" y="0px"
	 width="323.922px" height="93.5px" viewBox="0 0 323.922 93.5" enable-background="new 0 0 323.922 93.5" xml:space="preserve">
<path fill-rule="evenodd" clip-rule="evenodd" d="M23.851,57.466l61.561-16.725c0,0,1.536-1.845,3.677,3.634
	c0,0,51.538-14.598,53.741-14.81s2.864-3.482,5.56,3.278l54.67-15.191c9.583-3.513,79.143-27.339,104.159-8.742
	c7.685,5.713,14.026,15.423,15.694,31.756c0.979,9.595,4.82,30.11-13.451,41.544c-20.671,12.935-100.178,7.507-100.178,7.507
	l-55.734-6.788c-1.642,7.09-3.396,4.005-5.605,4.128c-2.209,0.124-55.363-6.506-55.363-6.506c-1.286,5.74-3.084,4.149-3.084,4.149
	l-63.383-7.215c0,0-23.173,13.362-26.114-10.457C0,67.029,3.412,43.125,23.851,57.466z"/>
<path fill-rule="evenodd" clip-rule="evenodd" fill="none" stroke="#FFFFFF" stroke-width="2" stroke-miterlimit="10" d="
	M23.851,57.466c0,0-7.034,10.505,2.264,20.02"/>
<path fill-rule="evenodd" clip-rule="evenodd" fill="none" stroke="#FFFFFF" stroke-width="2" stroke-miterlimit="10" d="
	M91.974,83.301c0,0-19.922-18.926-3.562-41.551"/>
<path fill-rule="evenodd" clip-rule="evenodd" fill="none" stroke="#FFFFFF" stroke-width="2" stroke-miterlimit="10" d="
	M147.537,29.125c0,0-19.125,32.266,5.25,57.25"/>
<linearGradient id="SVGID_1_" gradientUnits="userSpaceOnUse" x1="289.7241" y1="32.1489" x2="315.7697" y2="58.1945" gradientTransform="matrix(1.0013 0.0148 0.0148 1.1703 -1.0299 -11.8231)">
	<stop  offset="0" style="stop-color:#FFFFFF"/>
	<stop  offset="0.2675" style="stop-color:#FDFDFD"/>
	<stop  offset="0.3639" style="stop-color:#F6F7F7"/>
	<stop  offset="0.4325" style="stop-color:#EBEBEC"/>
	<stop  offset="0.488" style="stop-color:#DADBDC"/>
	<stop  offset="0.535" style="stop-color:#C4C6C7"/>
	<stop  offset="0.5599" style="stop-color:#B5B7B9"/>
	<stop  offset="0.5795" style="stop-color:#B8BABD"/>
	<stop  offset="0.6004" style="stop-color:#C3C5C7"/>
	<stop  offset="0.6217" style="stop-color:#D5D6D7"/>
	<stop  offset="0.6433" style="stop-color:#EDEEEE"/>
	<stop  offset="0.654" style="stop-color:#FFFFFF"/>
	<stop  offset="0.7121" style="stop-color:#FDFDFD"/>
	<stop  offset="0.7265" style="stop-color:#F7F7F7"/>
	<stop  offset="0.7454" style="stop-color:#E6E6E6"/>
	<stop  offset="0.7669" style="stop-color:#CBCBCB"/>
	<stop  offset="0.7903" style="stop-color:#A5A5A5"/>
	<stop  offset="0.8137" style="stop-color:#777777"/>
	<stop  offset="0.8248" style="stop-color:#858585"/>
	<stop  offset="0.8646" style="stop-color:#B0B0B0"/>
	<stop  offset="0.903" style="stop-color:#D2D2D2"/>
	<stop  offset="0.9393" style="stop-color:#EBEBEB"/>
	<stop  offset="0.9726" style="stop-color:#FAFAFA"/>
	<stop  offset="1" style="stop-color:#FFFFFF"/>
</linearGradient>
<path fill-rule="evenodd" clip-rule="evenodd" fill="url(#SVGID_1_)" d="M314.961,45.784c1.161,13.313-2.179,24.022-10.207,24.104
	c-8.343,0.086-12.825-10.741-14.843-23.521c-2.055-13.015,2.335-24.423,10.642-24.688C310.123,21.375,313.802,32.472,314.961,45.784
	z"/>
<path fill-rule="evenodd" clip-rule="evenodd" fill="none" stroke="#FFFFFF" stroke-width="2" stroke-miterlimit="10" d="
	M311.273,80.994C336.634,33.988,300.025,7,300.025,7"/>
<path fill-rule="evenodd" clip-rule="evenodd" fill="none" stroke="#FFFFFF" stroke-width="4" stroke-miterlimit="10" d="M304.212,6
	c-22.301,5.5-34.801,63.897,10.749,77.301"/>
<path fill-rule="evenodd" clip-rule="evenodd" fill="none" stroke="#FFFFFF" stroke-miterlimit="10" d="M232.822,8.643
	c0,0-36.41,55.052,19.09,82.205"/>
<path fill-rule="evenodd" clip-rule="evenodd" fill="none" stroke="#FFFFFF" stroke-miterlimit="10" d="M227.693,8.643
	c0,0-36.41,55.052,19.09,82.205"/>
</svg>
